<?xml version="1.0" standalone="no"?><!DOCTYPE svg PUBLIC "-//W3C//DTD SVG 1.1//EN" "http://www.w3.org/Graphics/SVG/1.1/DTD/svg11.dtd"><svg t="1529744774842" class="icon" style="" viewBox="0 0 1184 1024" version="1.1" xmlns="http://www.w3.org/2000/svg" p-id="3356" xmlns:xlink="http://www.w3.org/1999/xlink" width="231.25" height="200"><defs><style type="text/css"></style></defs><path d="M1138.372842 203.102853a151.088708 151.088708 0 0 0-111.604581-45.749136h-137.247408l-31.470744-83.047795A122.531922 122.531922 0 0 0 815.94342 22.874568 113.352955 113.352955 0 0 0 752.273444 0H437.128917a106.359457 106.359457 0 0 0-62.941486 22.874568 122.386224 122.386224 0 0 0-42.398085 51.431354l-34.239003 83.047795H157.388977a151.088708 151.088708 0 0 0-111.604581 45.749136A151.088708 151.088708 0 0 0 0.03526 314.561735v552.049289a151.088708 151.088708 0 0 0 45.749136 111.604581 151.088708 151.088708 0 0 0 111.604581 45.749136h869.524982a156.333831 156.333831 0 0 0 157.353717-157.353717V314.561735a151.088708 151.088708 0 0 0-45.749137-111.60458zM592.151468 840.968197A260.216424 260.216424 0 1 1 852.367892 580.606075a261.236309 261.236309 0 0 1-260.216424 260.362122z m0 0" fill="#ffffff" p-id="3357"></path><path d="M592.151468 408.973965a174.837463 174.837463 0 1 0 174.837463 174.837463 173.380484 173.380484 0 0 0-174.837463-174.837463z m0 0" fill="#ffffff" p-id="3358"></path></svg>