<?xml version="1.0" standalone="no"?><!DOCTYPE svg PUBLIC "-//W3C//DTD SVG 1.1//EN" "http://www.w3.org/Graphics/SVG/1.1/DTD/svg11.dtd"><svg t="1529742341810" class="icon" style="" viewBox="0 0 1091 1024" version="1.1" xmlns="http://www.w3.org/2000/svg" p-id="12406" xmlns:xlink="http://www.w3.org/1999/xlink" width="213.0859375" height="200"><defs><style type="text/css"></style></defs><path d="M510.554966 35.361285c0 0-1.502737-35.361285 35.971772-35.361285 39.775575 0 35.619568 34.234232 35.619568 34.234232l0 36.464858c0 0 508.653064 11.082687 508.653064 455.04761 0 0.751369 0 1.502737 0 2.254106 0 0-47.735387-106.036894-179.530136-106.036894-152.246063-2.207145-184.061827 108.244039-184.061827 108.244039s-29.913862-106.764782-182.183406-106.764782c0 0-143.910568-11.411411-183.686143 104.557637 0 0-17.422359-105.285525-181.032873-105.285525 0 0-130.292012-8.828581-180.281504 108.244039 0 0 76.756999-465.778093 510.554966-460.26023L510.578446 35.361285z" p-id="12407" fill="#d81e06"></path><path d="M511.306334 459.532341l70.440807 0 0 425.274629c0 0 1.150533 139.191034-144.309732 139.191034 0 0-145.436785 2.207145-145.436785-140.294606 0 0 2.277586-35.337805 38.625042-35.337805 36.370936 0 35.220403 36.441377 35.220403 36.441377s-3.404639 70.699089 72.718393 70.699089c0 0 72.718393-2.207145 72.718393-70.699089L511.282854 459.532341z" p-id="12408" fill="#d81e06"></path></svg>