<?xml version="1.0" standalone="no"?><!DOCTYPE svg PUBLIC "-//W3C//DTD SVG 1.1//EN" "http://www.w3.org/Graphics/SVG/1.1/DTD/svg11.dtd"><svg t="1529740914457" class="icon" style="" viewBox="0 0 1024 1024" version="1.1" xmlns="http://www.w3.org/2000/svg" p-id="6441" xmlns:xlink="http://www.w3.org/1999/xlink" width="200" height="200"><defs><style type="text/css"></style></defs><path d="M1010.215282 493.919411l-0.682209-0.682209-500.263956 509.610222a67.743367 67.743367 0 0 1-49.937709 21.148483 81.319329 81.319329 0 0 1-57.237346-25.241738L28.516342 619.445892a65.01453 65.01453 0 0 1-12.416206-96.191488L526.392566 8.18651V7.5043h0.955093c5.25301-0.682209 118.636168-7.5043 233.588407-7.5043 108.607694 0 218.306922 5.457673 240.137614 27.288365 44.684698 45.708012 9.141602 466.631046 9.141602 466.631046zM882.778616 141.899499c-27.288365-2.046627-66.310728-3.411046-122.047213-3.411045-65.560298 0-129.619735 2.046627-171.984922 4.093255L170.142957 564.869161l287.482929 292.667718 417.307325-425.698499c7.845405-111.882298 10.710683-223.082386 7.845405-289.938881zM716.319588 410.007688A102.33137 102.33137 0 1 1 818.650958 307.676318 102.33137 102.33137 0 0 1 716.319588 410.007688z m0-136.441826a34.110457 34.110457 0 1 0 34.110457 34.110456 34.110457 34.110457 0 0 0-34.110457-34.110456z" p-id="6442" fill="#1296db"></path></svg>