<?xml version="1.0" standalone="no"?><!DOCTYPE svg PUBLIC "-//W3C//DTD SVG 1.1//EN" "http://www.w3.org/Graphics/SVG/1.1/DTD/svg11.dtd"><svg t="1529681101941" class="icon" style="" viewBox="0 0 1024 1024" version="1.1" xmlns="http://www.w3.org/2000/svg" p-id="3311" xmlns:xlink="http://www.w3.org/1999/xlink" width="200" height="200"><defs><style type="text/css"></style></defs><path d="M1007.679417 0H16.320583A16.320583 16.320583 0 0 0 0 16.320583v990.892532a16.320583 16.320583 0 0 0 16.320583 16.320583h990.892532a16.320583 16.320583 0 0 0 16.320583-16.320583v-990.892532A16.320583 16.320583 0 0 0 1007.679417 0zM242.593807 803.322404A21.799636 21.799636 0 0 1 220.794171 781.056466c0-96.641166 115.409836-182.324226 254.834244-195.264116a184.539162 184.539162 0 1 1 72.74317 0 378.754098 378.754098 0 0 1 122.754098 32.408014 116.575592 116.575592 0 0 0-32.291439 185.12204z m538.812386-58.287796h-36.837887V781.056466a21.799636 21.799636 0 0 1-43.715847 0v-36.48816H664.480874a21.799636 21.799636 0 1 1 0-43.715847h36.837887V664.480874a21.799636 21.799636 0 0 1 43.715847 0v36.837887H781.056466a21.799636 21.799636 0 1 1 0 43.715847z" fill="#e16531" p-id="3312"></path></svg>