<?xml version="1.0" standalone="no"?><!DOCTYPE svg PUBLIC "-//W3C//DTD SVG 1.1//EN" "http://www.w3.org/Graphics/SVG/1.1/DTD/svg11.dtd"><svg t="1529657392617" class="icon" style="" viewBox="0 0 1024 1024" version="1.1" xmlns="http://www.w3.org/2000/svg" p-id="7594" xmlns:xlink="http://www.w3.org/1999/xlink" width="200" height="200"><defs><style type="text/css"></style></defs><path d="M467.51993191 105.52007369v205.63719703c-78.18133059 17.28808291-140.12446206 79.30120656-157.48253716 157.97248344H103.84025925c-32.89635234 0-49.34452803-39.75559156-26.10710434-63.06300744L404.45692544 79.41296837c23.30741588-23.30741588 63.06300744-6.78924703 63.06300647 26.10710532z" fill="#ffcd00" p-id="7595"></path><path d="M467.51993191 714.242574v205.63719703c0 32.89635234-39.75559156 49.34452803-63.06300647 26.10710531L77.73315491 619.26310581c-23.23742369-23.23742369-6.78924703-63.06300744 26.10710434-63.06300743h206.1971355c17.35807509 78.81126125 79.30120656 140.75439175 157.48253716 158.04247562z" fill="#FF2851" p-id="7596"></path><path d="M944.86700037 619.333098l-326.65377834 326.23382522c-23.23742369 23.23742369-62.99301525 6.78924703-62.99301428-26.10710531V714.242574c78.74126906-17.28808291 140.12446206-79.30120656 157.48253716-157.97248344h206.12714331c32.82636016 0 49.27453584 39.75559156 26.03711215 63.06300744z" fill="#1ebb56" p-id="7597"></path><path d="M918.75989603 469.12975416H712.63275272c-17.28808291-78.74126906-78.74126906-140.68439956-157.48253716-157.97248344V105.94002681c0-32.89635234 39.75559156-49.34452803 62.99301428-26.10710531L944.79700819 406.06674672c23.30741588 23.30741588 6.85923922 63.06300744-26.03711216 63.06300744z" fill="#02b5f7" p-id="7598"></path></svg>